<?xml version="1.0" encoding="UTF-8" standalone="no"?>
<svg
   width="128"
   height="128"
   viewBox="0 0 128 128"
   version="1.1"
   id="svg8"
   inkscape:version="1.4.2 (ebf0e940, 2025-05-08)"
   sodipodi:docname="calculator.svg"
   xmlns:inkscape="http://www.inkscape.org/namespaces/inkscape"
   xmlns:sodipodi="http://sodipodi.sourceforge.net/DTD/sodipodi-0.dtd"
   xmlns="http://www.w3.org/2000/svg"
   xmlns:svg="http://www.w3.org/2000/svg"
   xmlns:rdf="http://www.w3.org/1999/02/22-rdf-syntax-ns#"
   xmlns:cc="http://creativecommons.org/ns#"
   xmlns:dc="http://purl.org/dc/elements/1.1/">
  <defs
     id="defs2" />
  <sodipodi:namedview
     id="namedview6176"
     pagecolor="#ffffff"
     bordercolor="#666666"
     borderopacity="1.0"
     inkscape:pageopacity="0.0"
     inkscape:pageshadow="2"
     inkscape:zoom="5.4250454"
     inkscape:cx="52.534123"
     inkscape:cy="83.132945"
     inkscape:document-units="px"
     inkscape:current-layer="base"
     inkscape:document-rotation="0"
     showgrid="false"
     units="px"
     showguides="false"
     inkscape:window-width="1872"
     inkscape:window-height="1387"
     inkscape:window-x="3009"
     inkscape:window-y="25"
     inkscape:window-maximized="0"
     inkscape:showpageshadow="2"
     inkscape:pagecheckerboard="0"
     inkscape:deskcolor="#d1d1d1" />
  <metadata
     id="metadata5">
    <rdf:RDF>
      <cc:Work
         rdf:about="">
        <dc:format>image/svg+xml</dc:format>
        <dc:type
           rdf:resource="http://purl.org/dc/dcmitype/StillImage" />
      </cc:Work>
    </rdf:RDF>
  </metadata>
  <g
     inkscape:label="base"
     inkscape:groupmode="layer"
     id="base">
    <g
       id="g5"
       style="display:inline"
       transform="matrix(6.8888889,0,0,6.8888889,-18.666667,-18.666667)">
      <path
         d="M 19,3 H 5 C 3.9,3 3,3.9 3,5 v 14 c 0,1.1 0.9,2 2,2 h 14 c 1.1,0 2,-0.9 2,-2 V 5 C 21,3.9 20.1,3 19,3 Z m 0,16 H 5 V 5 h 14 z"
         id="path1" />
      <rect
         height="1.5"
         width="5"
         x="6.25"
         y="7.7199998"
         id="rect2" />
      <rect
         height="1.5"
         width="5"
         x="13"
         y="15.75"
         id="rect3" />
      <rect
         height="1.5"
         width="5"
         x="13"
         y="13.25"
         id="rect4" />
      <polygon
         points="8,16 8,18 9.5,18 9.5,16 11.5,16 11.5,14.5 9.5,14.5 9.5,12.5 8,12.5 8,14.5 6,14.5 6,16 "
         id="polygon4" />
      <polygon
         points="13.03,9.89 14.09,10.95 15.5,9.54 16.91,10.95 17.97,9.89 16.56,8.47 17.97,7.06 16.91,6 15.5,7.41 14.09,6 13.03,7.06 14.44,8.47 "
         id="polygon5" />
    </g>
  </g>
</svg>
