<?xml version="1.0" encoding="UTF-8" standalone="no"?>
<svg
   width="128"
   height="128"
   viewBox="0 0 128 128"
   version="1.1"
   id="svg8"
   inkscape:version="1.4.2 (ebf0e940, 2025-05-08)"
   sodipodi:docname="edit_icons.inkscape.svg"
   xmlns:inkscape="http://www.inkscape.org/namespaces/inkscape"
   xmlns:sodipodi="http://sodipodi.sourceforge.net/DTD/sodipodi-0.dtd"
   xmlns="http://www.w3.org/2000/svg"
   xmlns:svg="http://www.w3.org/2000/svg"
   xmlns:rdf="http://www.w3.org/1999/02/22-rdf-syntax-ns#"
   xmlns:cc="http://creativecommons.org/ns#"
   xmlns:dc="http://purl.org/dc/elements/1.1/">
  <defs
     id="defs2">
    <rect
       x="4.2313815"
       y="5.4161683"
       width="151.82196"
       height="138.15531"
       id="rect2" />
    <rect
       x="4.2313815"
       y="3.3851052"
       width="117.12464"
       height="117.29389"
       id="rect1" />
    <marker
       style="overflow:visible"
       id="Arrow1Lstart"
       refX="0.0"
       refY="0.0"
       orient="auto"
       inkscape:stockid="Arrow1Lstart"
       inkscape:isstock="true">
      <path
         transform="scale(0.8) translate(12.5,0)"
         style="fill-rule:evenodd;stroke:#212121;stroke-width:1pt;stroke-opacity:1;fill:#212121;fill-opacity:1"
         d="M 0.0,0.0 L 5.0,-5.0 L -12.5,0.0 L 5.0,5.0 L 0.0,0.0 z "
         id="path873" />
    </marker>
  </defs>
  <sodipodi:namedview
     id="namedview6176"
     pagecolor="#ffffff"
     bordercolor="#666666"
     borderopacity="1.0"
     inkscape:pageopacity="0.0"
     inkscape:pageshadow="2"
     inkscape:zoom="5.8353772"
     inkscape:cx="64.434566"
     inkscape:cy="59.036457"
     inkscape:document-units="px"
     inkscape:current-layer="text1"
     inkscape:document-rotation="0"
     showgrid="false"
     units="px"
     showguides="true"
     inkscape:window-width="2384"
     inkscape:window-height="1302"
     inkscape:window-x="2430"
     inkscape:window-y="25"
     inkscape:window-maximized="0"
     inkscape:showpageshadow="2"
     inkscape:pagecheckerboard="0"
     inkscape:deskcolor="#d1d1d1">
    <sodipodi:guide
       position="16.485896,63.999999"
       orientation="1,0"
       id="guide5"
       inkscape:locked="false" />
  </sodipodi:namedview>
  <metadata
     id="metadata5">
    <rdf:RDF>
      <cc:Work
         rdf:about="">
        <dc:format>image/svg+xml</dc:format>
        <dc:type
           rdf:resource="http://purl.org/dc/dcmitype/StillImage" />
        <dc:title />
      </cc:Work>
    </rdf:RDF>
  </metadata>
  <g
     inkscape:label="save"
     inkscape:groupmode="layer"
     id="save"
     style="display:inline">
    <path
       style="fill:#212121;fill-opacity:1;stroke:none;stroke-width:11110.3px;stroke-linecap:butt;stroke-linejoin:miter;stroke-opacity:1"
       d="M 98.444444,2 H 15.777778 C 8.1311111,2 2,8.2 2,15.777778 V 112.22222 C 2,119.8 8.1311111,126 15.777778,126 H 112.22222 C 119.8,126 126,119.8 126,112.22222 V 29.555556 Z M 64,112.22222 c -11.435556,0 -20.666667,-9.23111 -20.666667,-20.666664 C 43.333333,80.12 52.564444,70.888889 64,70.888889 c 11.435556,0 20.666667,9.231111 20.666667,20.666667 0,11.435554 -9.231111,20.666664 -20.666667,20.666664 z M 84.666667,43.333333 H 15.777778 V 15.777778 h 68.888889 z"
       id="path962" />
  </g>
  <g
     inkscape:label="save-as"
     inkscape:groupmode="layer"
     id="save-as"
     style="display:inline">
    <path
       style="fill:#212121;fill-opacity:1;stroke:none;stroke-width:12474.6px;stroke-linecap:butt;stroke-linejoin:miter;stroke-opacity:1"
       d="M 111.41176,60.35294 V 27.52941 L 87.098039,3.215685 H 14.156863 C 7.4098039,3.215685 2,8.6862732 2,15.372548 v 85.098042 c 0,6.68628 5.4098039,12.15685 12.156863,12.15685 H 59.137255 Z M 74.941176,76.156861 c 0,10.090197 -8.145098,18.235295 -18.235294,18.235295 -10.090196,0 -18.235294,-8.145098 -18.235294,-18.235295 0,-10.090196 8.145098,-18.235294 18.235294,-18.235294 10.090196,0 18.235294,8.145098 18.235294,18.235294 z M 20.235294,21.450979 H 74.941176 V 45.764705 H 20.235294 Z M 105.27255,83.754901 116.03137,94.513724 85.7,124.78431 H 74.941176 v -10.75882 z m 19.81569,1.580392 -5.16667,5.166667 -10.75882,-10.758824 5.16666,-5.166667 c 1.21569,-1.215686 3.1,-1.215686 4.31569,0 l 6.44314,6.443138 c 1.21568,1.215686 1.21568,3.160784 0,4.315686 z"
       id="path36" />
  </g>
  <g
     inkscape:label="new-document"
     inkscape:groupmode="layer"
     id="new-document"
     style="display:inline">
    <path
       style="fill:#212121;fill-opacity:1;stroke:none;stroke-width:14541.8px;stroke-linecap:butt;stroke-linejoin:miter;stroke-opacity:1"
       d="M 76.4,2 H 26.8 C 19.98,2 14.462,7.58 14.462,14.4 L 14.4,113.6 c 0,6.82 5.518,12.4 12.338,12.4 H 101.2 c 6.82,0 12.4,-5.58 12.4,-12.4 V 39.2 Z M 88.8,88.8 H 70.2 v 18.6 H 57.8 V 88.8 H 39.2 V 76.4 H 57.8 V 57.8 H 70.2 V 76.4 H 88.8 Z M 70.2,45.4 V 11.3 l 34.1,34.1 z"
       id="path16" />
  </g>
  <g
     inkscape:label="keyboard"
     inkscape:groupmode="layer"
     id="keyboard"
     style="display:inline">
    <path
       style="fill:#212121;fill-opacity:1;stroke:none;stroke-width:16965.5px;stroke-linecap:butt;stroke-linejoin:miter;stroke-opacity:1"
       d="M 113.6,20.6 H 14.4 C 7.58,20.6 2.062,26.18 2.062,33 L 2,95 c 0,6.82 5.58,12.4 12.4,12.4 h 99.2 c 6.82,0 12.4,-5.58 12.4,-12.4 V 33 c 0,-6.82 -5.58,-12.4 -12.4,-12.4 z M 57.8,39.2 H 70.2 V 51.6 H 57.8 Z m 0,18.6 H 70.2 V 70.2 H 57.8 Z M 39.2,39.2 H 51.6 V 51.6 H 39.2 Z m 0,18.6 H 51.6 V 70.2 H 39.2 Z M 33,70.2 H 20.6 V 57.8 H 33 Z M 33,51.6 H 20.6 V 39.2 H 33 Z M 88.8,95 H 39.2 V 82.6 h 49.6 z m 0,-24.8 H 76.4 V 57.8 h 12.4 z m 0,-18.6 H 76.4 V 39.2 h 12.4 z m 18.6,18.6 H 95 V 57.8 h 12.4 z m 0,-18.6 H 95 V 39.2 h 12.4 z"
       id="path20" />
  </g>
  <g
     inkscape:groupmode="layer"
     id="edit-undo"
     inkscape:label="edit-undo"
     transform="translate(0,29.740596)"
     style="display:inline">
    <path
       d="m 65.605276,13.057645 c -16.05276,0 -30.591108,5.99707 -41.797753,15.749878 L 2,7 V 61.518808 H 56.518808 L 34.590131,39.590131 c 8.420128,-7.026867 19.14216,-11.388372 31.015145,-11.388372 21.444064,0 39.677574,13.99316 46.038104,33.317049 L 126,56.793845 c -8.42014,-25.381533 -32.226672,-43.7362 -60.394724,-43.7362 z"
       id="path1"
       style="stroke-width:6.05765" />
  </g>
  <g
     inkscape:groupmode="layer"
     id="edit-redo"
     inkscape:label="edit-redo"
     style="display:inline">
    <path
       d="M 104.18149,58.5455 C 92.96946,48.788006 78.42412,42.788056 62.36365,42.788056 34.18206,42.788056 10.364077,61.15154 2.00051,86.54527 L 16.303422,91.2725 C 22.667006,71.93933 40.84867,57.93944 62.36365,57.93944 c 11.81808,0 22.60588,4.36361 31.03005,11.39385 L 71.45449,91.2725 h 54.545 v -54.545 z"
       id="path2"
       style="display:inline;stroke-width:6.06056" />
  </g>
  <g
     inkscape:groupmode="layer"
     id="split-view"
     inkscape:label="split-view"
     style="display:inline">
    <path
       d="M 125.99972,70.88886 H 70.888865 v 13.77772 h 55.110855 z m 0,27.55543 H 70.888865 V 112.222 h 55.110855 z m 0,-55.11086 H 70.888865 v 13.77771 h 55.110855 z m 0,-27.55543 H 70.888865 V 29.555715 H 125.99972 Z M 15.778,29.555715 V 98.44429 H 43.333425 V 29.555715 H 15.778 M 2.000285,15.778 h 55.11086 v 96.444 H 2.000285 Z"
       id="path2-6"
       style="stroke-width:6.88886" />
  </g>
  <g
     inkscape:groupmode="layer"
     id="comment"
     inkscape:label="comment"
     transform="translate(0.70896782,3.2581601)"
     style="display:inline">
    <g
       id="text1"
       style="font-size:32px;line-height:1.2;font-family:Ubuntu;-inkscape-font-specification:Ubuntu;letter-spacing:-1px;word-spacing:-5px;fill:#00c853;stroke-width:1.75748;stroke-linejoin:round"
       aria-label=" G0 X10&#10;(G1 Y20)&#10; G1 Z3"
       transform="matrix(1.1267811,0,0,1.1267811,-1.2994759,-7.5119506)">
      <path
         style="font-weight:bold;font-family:'Ubuntu Mono';-inkscape-font-specification:'Ubuntu Mono Bold';fill:#212121"
         d="m 24.275032,15.25573 q -1.408,0 -2.368,0.512 -0.96,0.512 -1.6,1.44 -0.608,0.896 -0.896,2.176 -0.256,1.248 -0.256,2.784 0,3.552 1.12,5.248 1.12,1.664 3.296,1.664 0.352,0 0.768,-0.032 0.416,-0.032 0.768,-0.096 v -7.232 h 3.936 v 9.888 q -0.704,0.256 -2.208,0.576 -1.472,0.32 -3.584,0.32 -1.856,0 -3.36,-0.64 -1.472,-0.672 -2.528,-1.952 -1.056,-1.312 -1.632,-3.232 -0.576,-1.952 -0.576,-4.512 0,-2.528 0.672,-4.448 0.672,-1.952 1.824,-3.264 1.152,-1.312 2.72,-1.952 1.568,-0.672 3.36,-0.672 1.152,0 2.048,0.192 0.928,0.16 1.6,0.384 0.672,0.224 1.088,0.48 0.448,0.256 0.672,0.384 l -1.024,3.136 q -0.704,-0.448 -1.728,-0.8 -1.024,-0.352 -2.112,-0.352 z m 19.896,6.88 q 0,5.248 -1.76,7.808 -1.76,2.56 -5.12,2.56 -3.36,0 -5.12,-2.56 -1.76,-2.56 -1.76,-7.808 0,-5.184 1.792,-7.744 1.792,-2.56 5.088,-2.56 3.36,0 5.12,2.56 1.76,2.528 1.76,7.744 z m -3.552,0 q 0,-3.392 -0.864,-5.152 -0.832,-1.792 -2.464,-1.792 -1.6,0 -2.464,1.792 -0.864,1.76 -0.864,5.152 0,3.424 0.864,5.216 0.864,1.76 2.464,1.76 1.632,0 2.464,-1.76 0.864,-1.792 0.864,-5.216 z m -1.536,-0.32 q 0,0.864 -0.512,1.504 -0.48,0.608 -1.248,0.608 -0.832,0 -1.312,-0.608 -0.48,-0.64 -0.48,-1.504 0,-0.864 0.48,-1.504 0.48,-0.64 1.312,-0.64 0.768,0 1.248,0.64 0.512,0.64 0.512,1.504 z m 26.6,10.272 q -0.608,-1.632 -1.504,-3.616 -0.864,-1.984 -1.824,-3.968 -0.928,1.888 -1.856,3.936 -0.928,2.016 -1.6,3.648 h -4.256 q 0.32,-0.864 0.928,-2.08 0.64,-1.216 1.376,-2.624 0.768,-1.408 1.6,-2.88 0.832,-1.504 1.6,-2.88 l -5.184,-9.344 h 4.256 l 3.136,6.336 3.296,-6.336 h 3.968 l -5.056,9.248 q 0.864,1.376 1.696,2.88 0.832,1.504 1.536,2.944 0.736,1.408 1.28,2.656 0.544,1.216 0.864,2.08 z m 10.424,-3.264 v -11.072 q -0.896,0.64 -2.048,1.152 -1.152,0.48 -1.952,0.768 l -1.28,-3.264 q 0.768,-0.288 1.664,-0.736 0.896,-0.448 1.792,-0.992 0.896,-0.544 1.696,-1.152 0.8,-0.608 1.376,-1.248 h 2.688 v 16.544 h 3.936 v 3.264 h -12.032 v -3.264 z m 23.064,-6.688 q 0,5.248 -1.76,7.808 -1.76,2.56 -5.12,2.56 -3.36,0 -5.12,-2.56 -1.76,-2.56 -1.76,-7.808 0,-5.184 1.792,-7.744 1.792,-2.56 5.088,-2.56 3.36,0 5.12,2.56 1.76,2.528 1.76,7.744 z m -3.552,0 q 0,-3.392 -0.864,-5.152 -0.832,-1.792 -2.464,-1.792 -1.6,0 -2.464,1.792 -0.864,1.76 -0.864,5.152 0,3.424 0.864,5.216 0.864,1.76 2.464,1.76 1.632,0 2.464,-1.76 0.864,-1.792 0.864,-5.216 z m -1.536,-0.32 q 0,0.864 -0.512,1.504 -0.48,0.608 -1.248,0.608 -0.832,0 -1.312,-0.608 -0.48,-0.64 -0.48,-1.504 0,-0.864 0.48,-1.504 0.48,-0.64 1.312,-0.64 0.768,0 1.248,0.64 0.512,0.64 0.512,1.504 z"
         id="path3" />
      <path
         style="font-weight:bold;font-family:'Ubuntu Mono';-inkscape-font-specification:'Ubuntu Mono Bold'"
         d="m 5.9470322,61.982136 q 0,3.936 1.728,6.848 1.76,2.88 4.8319998,4.672 l -1.824,2.432 q -4.3519998,-2.4 -6.3679998,-5.984 -2.016,-3.584 -2.016,-7.968 0,-4.416 2.08,-8.096 2.08,-3.712 6.4319998,-6.112 l 1.824,2.432 q -3.0719998,1.792 -4.8959998,4.8 -1.792,3.008 -1.792,6.976 z m 18.3279998,-8.32 q -1.408,0 -2.368,0.512 -0.96,0.512 -1.6,1.44 -0.608,0.896 -0.896,2.176 -0.256,1.248 -0.256,2.784 0,3.552 1.12,5.248 1.12,1.664 3.296,1.664 0.352,0 0.768,-0.032 0.416,-0.032 0.768,-0.096 v -7.232 h 3.936 v 9.888 q -0.704,0.256 -2.208,0.576 -1.472,0.32 -3.584,0.32 -1.856,0 -3.36,-0.64 -1.472,-0.672 -2.528,-1.952 -1.056,-1.312 -1.632,-3.232 -0.576,-1.952 -0.576,-4.512 0,-2.528 0.672,-4.448 0.672,-1.952 1.824,-3.264 1.152,-1.312 2.72,-1.952 1.568,-0.672 3.36,-0.672 1.152,0 2.048,0.192 0.928,0.16 1.6,0.384 0.672,0.224 1.088,0.48 0.448,0.256 0.672,0.384 l -1.024,3.136 q -0.704,-0.448 -1.728,-0.8 -1.024,-0.352 -2.112,-0.352 z m 11.832,13.568 v -11.072 q -0.896,0.64 -2.048,1.152 -1.152,0.48 -1.952,0.768 l -1.28,-3.264 q 0.768,-0.288 1.664,-0.736 0.896,-0.448 1.792,-0.992 0.896,-0.544 1.696,-1.152 0.8,-0.608 1.376,-1.248 h 2.688 v 16.544 h 3.936 v 3.264 h -12.032 v -3.264 z m 26.312,-7.488 q 0.352,-0.736 0.8,-1.856 0.48,-1.12 0.928,-2.368 0.48,-1.248 0.896,-2.528 0.448,-1.28 0.8,-2.304 h 4.064 q -0.608,1.632 -1.216,3.168 -0.608,1.536 -1.28,3.04 -0.672,1.504 -1.44,3.008 -0.768,1.472 -1.664,3.04 v 7.552 h -3.968 v -7.52 q -1.76,-3.104 -3.104,-6.048 -1.312,-2.976 -2.528,-6.24 h 4.224 q 0.736,2.304 1.632,4.704 0.896,2.368 1.856,4.352 z m 20.76,-3.84 q 0,1.024 -0.384,1.984 -0.384,0.928 -1.024,1.824 -0.64,0.896 -1.44,1.728 -0.8,0.832 -1.632,1.6 -0.416,0.384 -0.96,0.928 -0.544,0.512 -1.024,1.088 -0.48,0.544 -0.832,1.12 -0.32,0.576 -0.32,1.056 h 8.512 v 3.264 h -12.928 q -0.096,-0.32 -0.096,-0.8 0.032,-0.48 0.032,-0.672 0,-1.6 0.576,-2.944 0.608,-1.344 1.504,-2.464 0.928,-1.152 1.952,-2.112 1.056,-0.992 1.952,-1.888 0.928,-0.896 1.504,-1.728 0.608,-0.832 0.608,-1.696 0,-1.216 -0.736,-1.856 -0.736,-0.672 -1.856,-0.672 -0.928,0 -1.952,0.448 -1.024,0.448 -2.016,1.504 l -1.952,-2.752 q 1.28,-1.344 2.944,-1.984 1.696,-0.64 3.36,-0.64 1.216,0 2.336,0.352 1.12,0.352 1.984,1.056 0.864,0.704 1.376,1.792 0.512,1.056 0.512,2.464 z m 15.992,4.64 q 0,5.248 -1.76,7.808 -1.76,2.56 -5.12,2.56 -3.36,0 -5.12,-2.56 -1.76,-2.56 -1.76,-7.808 0,-5.184 1.792,-7.744 1.792,-2.56 5.088,-2.56 3.36,0 5.12,2.56 1.76,2.528 1.76,7.744 z m -3.552,0 q 0,-3.392 -0.864,-5.152 -0.832,-1.792 -2.464,-1.792 -1.6,0 -2.464,1.792 -0.864,1.76 -0.864,5.152 0,3.424 0.864,5.216 0.864,1.76 2.464,1.76 1.632,0 2.464,-1.76 0.864,-1.792 0.864,-5.216 z m -1.536,-0.32 q 0,0.864 -0.512,1.504 -0.48,0.608 -1.248,0.608 -0.832,0 -1.312,-0.608 -0.48,-0.64 -0.48,-1.504 0,-0.864 0.48,-1.504 0.48,-0.64 1.312,-0.64 0.768,0 1.248,0.64 0.512,0.64 0.512,1.504 z m 14.615998,1.76 q 0,-3.968 -1.824,-6.976 -1.792,-3.008 -4.864,-4.8 l 1.824,-2.432 q 4.352,2.4 6.432,6.112 2.08,3.68 2.08,8.096 0,4.384 -2.016,7.968 -2.016,3.584 -6.368,5.984 l -1.824,-2.432 q 3.072,-1.792 4.8,-4.672 1.76,-2.912 1.76,-6.848 z"
         id="path4" />
      <path
         style="font-weight:bold;font-family:'Ubuntu Mono';-inkscape-font-specification:'Ubuntu Mono Bold';fill:#212121"
         d="m 24.275032,92.068541 q -1.408,0 -2.368,0.512 -0.96,0.512 -1.6,1.44 -0.608,0.896 -0.896,2.176 -0.256,1.248 -0.256,2.784 0,3.551999 1.12,5.247999 1.12,1.664 3.296,1.664 0.352,0 0.768,-0.032 0.416,-0.032 0.768,-0.096 v -7.231999 h 3.936 v 9.887999 q -0.704,0.256 -2.208,0.576 -1.472,0.32 -3.584,0.32 -1.856,0 -3.36,-0.64 -1.472,-0.672 -2.528,-1.952 -1.056,-1.312 -1.632,-3.232 -0.576,-1.952 -0.576,-4.511999 0,-2.528 0.672,-4.448 0.672,-1.952 1.824,-3.264 1.152,-1.312 2.72,-1.952 1.568,-0.672 3.36,-0.672 1.152,0 2.048,0.192 0.928,0.16 1.6,0.384 0.672,0.224 1.088,0.48 0.448,0.256 0.672,0.384 l -1.024,3.136 q -0.704,-0.448 -1.728,-0.8 -1.024,-0.352 -2.112,-0.352 z m 11.832,13.567999 V 94.564541 q -0.896,0.64 -2.048,1.152 -1.152,0.48 -1.952,0.768 l -1.28,-3.264 q 0.768,-0.288 1.664,-0.736 0.896,-0.448 1.792,-0.992 0.896,-0.544 1.696,-1.152 0.8,-0.608 1.376,-1.248 h 2.688 v 16.543999 h 3.936 v 3.264 h -12.032 v -3.264 z m 32.424,-13.791999 q -1.376,2.112 -2.528,3.968 -1.152,1.856 -2.144,3.552 -0.992,1.663999 -1.888,3.231999 -0.864,1.536 -1.664,3.04 h 8.512 v 3.264 h -13.056 v -2.272 q 0.704,-1.376 1.504,-2.88 0.8,-1.536 1.792,-3.264 0.992,-1.727999 2.144,-3.743999 1.184,-2.016 2.592,-4.384 h -7.616 v -3.264 h 12.352 z m 7.576,17.471999 q -0.736,0 -1.568,-0.128 -0.8,-0.096 -1.568,-0.256 -0.736,-0.16 -1.376,-0.352 -0.64,-0.192 -0.992,-0.352 l 0.768,-3.296 q 0.736,0.32 1.888,0.672 1.184,0.352 2.816,0.352 2.016,0 2.816,-0.864 0.832,-0.864 0.832,-2.144 0,-1.568 -1.248,-2.176 -1.248,-0.64 -3.168,-0.64 h -1.216 v -3.263999 h 1.472 q 0.608,0 1.216,-0.128 0.608,-0.128 1.088,-0.416 0.48,-0.288 0.768,-0.768 0.32,-0.48 0.32,-1.216 0,-1.088 -0.672,-1.696 -0.64,-0.64 -1.792,-0.64 -1.12,0 -2.24,0.384 -1.088,0.352 -1.888,0.896 l -1.408,-2.88 q 0.864,-0.576 2.272,-1.152 1.44,-0.608 3.232,-0.608 1.664,0 2.88,0.416 1.248,0.416 2.048,1.184 0.8,0.736 1.184,1.76 0.384,1.024 0.384,2.208 0,1.184 -0.672,2.272 -0.672,1.088 -1.792,1.664 1.536,0.64 2.368,1.887999 0.864,1.248 0.864,2.976 0,1.376 -0.448,2.528 -0.448,1.152 -1.376,2.016 -0.928,0.832 -2.368,1.312 -1.44,0.448 -3.424,0.448 z"
         id="path5" />
    </g>
  </g>
  <g
     inkscape:label="keyboard-hide"
     inkscape:groupmode="layer"
     id="keyboard-hide"
     style="display:inline">
    <path
       style="fill:#212121;fill-opacity:1;stroke:none;stroke-width:14541.9px;stroke-linecap:butt;stroke-linejoin:miter;stroke-opacity:1"
       d="M 113.6,2 H 14.4 C 7.58,2 2.062,7.58 2.062,14.4 L 2,76.4 c 0,6.82 5.58,12.4 12.4,12.4 h 99.2 c 6.82,0 12.4,-5.58 12.4,-12.4 v -62 C 126,7.58 120.42,2 113.6,2 Z M 57.8,20.6 H 70.2 V 33 H 57.8 Z m 0,18.6 H 70.2 V 51.6 H 57.8 Z M 39.2,20.6 H 51.6 V 33 H 39.2 Z m 0,18.6 H 51.6 V 51.6 H 39.2 Z M 33,51.6 H 20.6 V 39.2 H 33 Z M 33,33 H 20.6 V 20.6 H 33 Z M 88.8,76.4 H 39.2 V 64 h 49.6 z m 0,-24.8 H 76.4 V 39.2 H 88.8 Z M 88.8,33 H 76.4 V 20.6 h 12.4 z m 18.6,18.6 H 95 V 39.2 h 12.4 z m 0,-18.6 H 95 V 20.6 h 12.4 z M 64,126 88.8,101.2 H 39.2 Z"
       id="path24" />
  </g>
</svg>
