<?xml version="1.0" encoding="UTF-8" standalone="no"?>
<svg
   width="128"
   height="128"
   viewBox="0 0 128 128"
   version="1.1"
   id="svg8"
   inkscape:version="1.4.2 (ebf0e940, 2025-05-08)"
   sodipodi:docname="edit_icons.inkscape.svg"
   xmlns:inkscape="http://www.inkscape.org/namespaces/inkscape"
   xmlns:sodipodi="http://sodipodi.sourceforge.net/DTD/sodipodi-0.dtd"
   xmlns="http://www.w3.org/2000/svg"
   xmlns:svg="http://www.w3.org/2000/svg"
   xmlns:rdf="http://www.w3.org/1999/02/22-rdf-syntax-ns#"
   xmlns:cc="http://creativecommons.org/ns#"
   xmlns:dc="http://purl.org/dc/elements/1.1/">
  <defs
     id="defs2">
    <rect
       x="4.2313815"
       y="5.4161683"
       width="151.82196"
       height="138.15531"
       id="rect2" />
    <rect
       x="4.2313815"
       y="3.3851052"
       width="117.12464"
       height="117.29389"
       id="rect1" />
    <marker
       style="overflow:visible"
       id="Arrow1Lstart"
       refX="0.0"
       refY="0.0"
       orient="auto"
       inkscape:stockid="Arrow1Lstart"
       inkscape:isstock="true">
      <path
         transform="scale(0.8) translate(12.5,0)"
         style="fill-rule:evenodd;stroke:#212121;stroke-width:1pt;stroke-opacity:1;fill:#212121;fill-opacity:1"
         d="M 0.0,0.0 L 5.0,-5.0 L -12.5,0.0 L 5.0,5.0 L 0.0,0.0 z "
         id="path873" />
    </marker>
  </defs>
  <sodipodi:namedview
     id="namedview6176"
     pagecolor="#ffffff"
     bordercolor="#666666"
     borderopacity="1.0"
     inkscape:pageopacity="0.0"
     inkscape:pageshadow="2"
     inkscape:zoom="7.4699194"
     inkscape:cx="71.486715"
     inkscape:cy="62.718214"
     inkscape:document-units="px"
     inkscape:current-layer="edit-undo"
     inkscape:document-rotation="0"
     showgrid="false"
     units="px"
     showguides="false"
     inkscape:window-width="2384"
     inkscape:window-height="1302"
     inkscape:window-x="2430"
     inkscape:window-y="25"
     inkscape:window-maximized="0"
     inkscape:showpageshadow="2"
     inkscape:pagecheckerboard="0"
     inkscape:deskcolor="#d1d1d1" />
  <metadata
     id="metadata5">
    <rdf:RDF>
      <cc:Work
         rdf:about="">
        <dc:format>image/svg+xml</dc:format>
        <dc:type
           rdf:resource="http://purl.org/dc/dcmitype/StillImage" />
        <dc:title />
      </cc:Work>
    </rdf:RDF>
  </metadata>
  <g
     inkscape:label="save"
     inkscape:groupmode="layer"
     id="save"
     style="display:inline">
    <path
       style="fill:#212121;fill-opacity:1;stroke:none;stroke-width:11110.3px;stroke-linecap:butt;stroke-linejoin:miter;stroke-opacity:1"
       d="M 98.444444,2 H 15.777778 C 8.1311111,2 2,8.2 2,15.777778 V 112.22222 C 2,119.8 8.1311111,126 15.777778,126 H 112.22222 C 119.8,126 126,119.8 126,112.22222 V 29.555556 Z M 64,112.22222 c -11.435556,0 -20.666667,-9.23111 -20.666667,-20.666664 C 43.333333,80.12 52.564444,70.888889 64,70.888889 c 11.435556,0 20.666667,9.231111 20.666667,20.666667 0,11.435554 -9.231111,20.666664 -20.666667,20.666664 z M 84.666667,43.333333 H 15.777778 V 15.777778 h 68.888889 z"
       id="path962" />
  </g>
  <g
     inkscape:label="save-as"
     inkscape:groupmode="layer"
     id="save-as"
     style="display:inline">
    <path
       style="fill:#212121;fill-opacity:1;stroke:none;stroke-width:12474.6px;stroke-linecap:butt;stroke-linejoin:miter;stroke-opacity:1"
       d="M 111.41176,60.35294 V 27.52941 L 87.098039,3.215685 H 14.156863 C 7.4098039,3.215685 2,8.6862732 2,15.372548 v 85.098042 c 0,6.68628 5.4098039,12.15685 12.156863,12.15685 H 59.137255 Z M 74.941176,76.156861 c 0,10.090197 -8.145098,18.235295 -18.235294,18.235295 -10.090196,0 -18.235294,-8.145098 -18.235294,-18.235295 0,-10.090196 8.145098,-18.235294 18.235294,-18.235294 10.090196,0 18.235294,8.145098 18.235294,18.235294 z M 20.235294,21.450979 H 74.941176 V 45.764705 H 20.235294 Z M 105.27255,83.754901 116.03137,94.513724 85.7,124.78431 H 74.941176 v -10.75882 z m 19.81569,1.580392 -5.16667,5.166667 -10.75882,-10.758824 5.16666,-5.166667 c 1.21569,-1.215686 3.1,-1.215686 4.31569,0 l 6.44314,6.443138 c 1.21568,1.215686 1.21568,3.160784 0,4.315686 z"
       id="path36" />
  </g>
  <g
     inkscape:label="new-document"
     inkscape:groupmode="layer"
     id="new-document"
     style="display:inline">
    <path
       style="fill:#212121;fill-opacity:1;stroke:none;stroke-width:14541.8px;stroke-linecap:butt;stroke-linejoin:miter;stroke-opacity:1"
       d="M 76.4,2 H 26.8 C 19.98,2 14.462,7.58 14.462,14.4 L 14.4,113.6 c 0,6.82 5.518,12.4 12.338,12.4 H 101.2 c 6.82,0 12.4,-5.58 12.4,-12.4 V 39.2 Z M 88.8,88.8 H 70.2 v 18.6 H 57.8 V 88.8 H 39.2 V 76.4 H 57.8 V 57.8 H 70.2 V 76.4 H 88.8 Z M 70.2,45.4 V 11.3 l 34.1,34.1 z"
       id="path16" />
  </g>
  <g
     inkscape:label="keyboard"
     inkscape:groupmode="layer"
     id="keyboard"
     style="display:inline">
    <path
       style="fill:#212121;fill-opacity:1;stroke:none;stroke-width:16965.5px;stroke-linecap:butt;stroke-linejoin:miter;stroke-opacity:1"
       d="M 113.6,20.6 H 14.4 C 7.58,20.6 2.062,26.18 2.062,33 L 2,95 c 0,6.82 5.58,12.4 12.4,12.4 h 99.2 c 6.82,0 12.4,-5.58 12.4,-12.4 V 33 c 0,-6.82 -5.58,-12.4 -12.4,-12.4 z M 57.8,39.2 H 70.2 V 51.6 H 57.8 Z m 0,18.6 H 70.2 V 70.2 H 57.8 Z M 39.2,39.2 H 51.6 V 51.6 H 39.2 Z m 0,18.6 H 51.6 V 70.2 H 39.2 Z M 33,70.2 H 20.6 V 57.8 H 33 Z M 33,51.6 H 20.6 V 39.2 H 33 Z M 88.8,95 H 39.2 V 82.6 h 49.6 z m 0,-24.8 H 76.4 V 57.8 h 12.4 z m 0,-18.6 H 76.4 V 39.2 h 12.4 z m 18.6,18.6 H 95 V 57.8 h 12.4 z m 0,-18.6 H 95 V 39.2 h 12.4 z"
       id="path20" />
  </g>
  <g
     inkscape:groupmode="layer"
     id="edit-undo"
     inkscape:label="edit-undo"
     transform="translate(0,29.740596)"
     style="display:inline">
    <path
       d="m 65.605276,13.057645 c -16.05276,0 -30.591108,5.99707 -41.797753,15.749878 L 2,7 V 61.518808 H 56.518808 L 34.590131,39.590131 c 8.420128,-7.026867 19.14216,-11.388372 31.015145,-11.388372 21.444064,0 39.677574,13.99316 46.038104,33.317049 L 126,56.793845 c -8.42014,-25.381533 -32.226672,-43.7362 -60.394724,-43.7362 z"
       id="path1"
       style="stroke-width:6.05765" />
  </g>
  <g
     inkscape:groupmode="layer"
     id="edit-redo"
     inkscape:label="edit-redo"
     style="display:inline">
    <path
       d="M 104.18149,58.5455 C 92.96946,48.788006 78.42412,42.788056 62.36365,42.788056 34.18206,42.788056 10.364077,61.15154 2.00051,86.54527 L 16.303422,91.2725 C 22.667006,71.93933 40.84867,57.93944 62.36365,57.93944 c 11.81808,0 22.60588,4.36361 31.03005,11.39385 L 71.45449,91.2725 h 54.545 v -54.545 z"
       id="path2"
       style="display:inline;stroke-width:6.06056" />
  </g>
  <g
     inkscape:groupmode="layer"
     id="split-view"
     inkscape:label="split-view"
     style="display:inline">
    <path
       d="M 125.99972,70.88886 H 70.888865 v 13.77772 h 55.110855 z m 0,27.55543 H 70.888865 V 112.222 h 55.110855 z m 0,-55.11086 H 70.888865 v 13.77771 h 55.110855 z m 0,-27.55543 H 70.888865 V 29.555715 H 125.99972 Z M 15.778,29.555715 V 98.44429 H 43.333425 V 29.555715 H 15.778 M 2.000285,15.778 h 55.11086 v 96.444 H 2.000285 Z"
       id="path2-6"
       style="stroke-width:6.88886" />
  </g>
  <g
     inkscape:groupmode="layer"
     id="comment"
     inkscape:label="comment"
     transform="translate(0.70896782,3.2581601)"
     style="display:inline">
    <g
       id="text2"
       style="font-size:32px;line-height:1.2;font-family:'Ubuntu Mono';-inkscape-font-specification:'Ubuntu Mono';letter-spacing:0px;word-spacing:0px;white-space:pre;fill:#ff2a1c;stroke-width:1.75748;stroke-linejoin:round"
       transform="translate(-4.9394366,-2.2003184)"
       aria-label=" G0 X10&#10;(G1 Y20)&#10; G1 Z3">
      <path
         style="fill:#212121"
         d="m 32.166469,24.70217 h 2.624 v 9.28 q -0.608,0.224 -1.952,0.544 -1.344,0.352 -3.168,0.352 -1.792,0 -3.264,-0.672 -1.472,-0.704 -2.528,-2.016 -1.024,-1.312 -1.6,-3.232 -0.576,-1.952 -0.576,-4.416 0,-2.496 0.64,-4.416 0.64,-1.92 1.728,-3.232 1.12,-1.312 2.592,-1.984 1.472,-0.704 3.168,-0.704 1.088,0 1.92,0.16 0.832,0.16 1.408,0.384 0.608,0.224 0.992,0.48 0.384,0.224 0.576,0.352 l -0.864,2.208 q -0.736,-0.576 -1.76,-0.928 -0.992,-0.384 -2.112,-0.384 -1.216,0 -2.272,0.576 -1.024,0.576 -1.76,1.632 -0.736,1.056 -1.152,2.56 -0.416,1.472 -0.416,3.296 0,1.792 0.352,3.264 0.384,1.472 1.088,2.528 0.704,1.056 1.728,1.664 1.056,0.576 2.4,0.576 0.928,0 1.44,-0.128 0.512,-0.128 0.768,-0.256 z m 13.92,-0.512 q 0,0.832 -0.512,1.44 -0.48,0.608 -1.28,0.608 -0.832,0 -1.344,-0.608 -0.512,-0.608 -0.512,-1.44 0,-0.832 0.512,-1.472 0.512,-0.64 1.344,-0.64 0.8,0 1.28,0.64 0.512,0.64 0.512,1.472 z m -8.384,0.352 q 0,-4.992 1.696,-7.648 1.728,-2.688 4.832,-2.688 3.136,0 4.832,2.688 1.696,2.656 1.696,7.648 0,4.992 -1.696,7.68 -1.696,2.656 -4.832,2.656 -3.104,0 -4.832,-2.656 -1.696,-2.688 -1.696,-7.68 z m 10.368,0 q 0,-1.632 -0.192,-3.072 -0.192,-1.472 -0.64,-2.56 -0.448,-1.088 -1.184,-1.728 -0.736,-0.64 -1.824,-0.64 -1.088,0 -1.824,0.64 -0.736,0.64 -1.184,1.728 -0.448,1.088 -0.64,2.56 -0.192,1.44 -0.192,3.072 0,1.632 0.192,3.104 0.192,1.44 0.64,2.528 0.448,1.088 1.184,1.728 0.736,0.64 1.824,0.64 1.088,0 1.824,-0.64 0.736,-0.64 1.184,-1.728 0.448,-1.088 0.64,-2.528 0.192,-1.472 0.192,-3.104 z m 32.448,9.92 q -0.352,-0.864 -0.832,-1.952 -0.48,-1.088 -1.024,-2.24 -0.544,-1.152 -1.184,-2.304 -0.608,-1.152 -1.28,-2.144 -1.12,1.792 -2.24,4.128 -1.12,2.304 -2.08,4.512 h -2.848 q 1.056,-2.368 2.464,-5.12 1.408,-2.784 3.008,-5.344 l -5.152,-9.344 h 2.912 l 3.872,7.584 4.16,-7.584 h 2.848 l -5.248,9.248 q 1.536,2.496 2.976,5.184 1.44,2.688 2.56,5.376 z m 6.112,-15.712 q 1.632,-0.64 3.168,-1.6 1.536,-0.992 2.848,-2.496 h 1.856 v 17.568 h 3.744 v 2.24 h -10.656 v -2.24 h 4.288 v -13.888 q -0.352,0.32 -0.864,0.672 -0.48,0.32 -1.088,0.64 -0.576,0.32 -1.216,0.608 -0.64,0.288 -1.248,0.48 z m 23.456001,5.44 q 0,0.832 -0.512,1.44 -0.48,0.608 -1.28,0.608 -0.832,0 -1.344,-0.608 -0.512,-0.608 -0.512,-1.44 0,-0.832 0.512,-1.472 0.512,-0.64 1.344,-0.64 0.8,0 1.28,0.64 0.512,0.64 0.512,1.472 z m -8.384,0.352 q 0,-4.992 1.696,-7.648 1.728,-2.688 4.832,-2.688 3.136,0 4.832,2.688 1.696,2.656 1.696,7.648 0,4.992 -1.696,7.68 -1.696,2.656 -4.832,2.656 -3.104,0 -4.832,-2.656 -1.696,-2.688 -1.696,-7.68 z m 10.368,0 q 0,-1.632 -0.192,-3.072 -0.192,-1.472 -0.64,-2.56 -0.448,-1.088 -1.184,-1.728 -0.736,-0.64 -1.824,-0.64 -1.088,0 -1.824,0.64 -0.736,0.64 -1.184,1.728 -0.448,1.088 -0.64,2.56 -0.192,1.44 -0.192,3.072 0,1.632 0.192,3.104 0.192,1.44 0.64,2.528 0.448,1.088 1.184,1.728 0.736,0.64 1.824,0.64 1.088,0 1.824,-0.64 0.736,-0.64 1.184,-1.728 0.448,-1.088 0.64,-2.528 0.192,-1.472 0.192,-3.104 z"
         id="path3" />
      <path
         style="fill:#00c853"
         d="m 16.518469,52.350172 q -2.976,2.304 -4.544,5.312 -1.568,3.008 -1.568,6.56 0,1.792 0.352,3.392 0.384,1.6 1.12,3.072 0.768,1.472 1.92,2.848 1.184,1.376 2.784,2.752 l -1.44,1.92 q -3.68,-2.72 -5.5040002,-6.304 -1.7920001,-3.616 -1.7920001,-7.616 0,-3.968 1.8240001,-7.584 1.8240002,-3.616 5.4720002,-6.272 l 1.408,1.92 z m 15.648,10.752 h 2.624 v 9.28 q -0.608,0.224 -1.952,0.544 -1.344,0.352 -3.168,0.352 -1.792,0 -3.264,-0.672 -1.472,-0.704 -2.528,-2.016 -1.024,-1.312 -1.6,-3.232 -0.576,-1.952 -0.576,-4.416 0,-2.496 0.64,-4.416 0.64,-1.92 1.728,-3.232 1.12,-1.312 2.592,-1.984 1.472,-0.704 3.168,-0.704 1.088,0 1.92,0.16 0.832,0.16 1.408,0.384 0.608,0.224 0.992,0.48 0.384,0.224 0.576,0.352 l -0.864,2.208 q -0.736,-0.576 -1.76,-0.928 -0.992,-0.384 -2.112,-0.384 -1.216,0 -2.272,0.576 -1.024,0.576 -1.76,1.632 -0.736,1.056 -1.152,2.56 -0.416,1.472 -0.416,3.296 0,1.792 0.352,3.264 0.384,1.472 1.088,2.528 0.704,1.056 1.728,1.664 1.056,0.576 2.4,0.576 0.928,0 1.44,-0.128 0.512,-0.128 0.768,-0.256 z m 6.464,-5.952 q 1.632,-0.64 3.168,-1.6 1.536,-0.992 2.848,-2.496 h 1.856 v 17.568 h 3.744 v 2.24 h -10.656 v -2.24 h 4.288 v -13.888 q -0.352,0.32 -0.864,0.672 -0.48,0.32 -1.088,0.64 -0.576,0.32 -1.216,0.608 -0.64,0.288 -1.248,0.48 z m 36.32,15.712 v -7.36 q -1.952,-3.2 -3.552,-6.24 -1.568,-3.04 -2.752,-6.208 h 2.944 q 0.928,2.688 2.112,5.152 1.216,2.432 2.592,5.024 1.472,-2.72 2.592,-5.152 1.152,-2.464 2.08,-5.024 h 2.88 q -1.216,3.136 -2.784,6.112 -1.568,2.976 -3.488,6.272 v 7.424 z m 22.72,-14.752 q 0,1.024 -0.416,1.984 -0.384,0.96 -1.056,1.888 -0.64,0.928 -1.472,1.824 -0.832,0.896 -1.696,1.76 -0.48,0.48 -1.12,1.152 -0.64,0.672 -1.216,1.376 -0.576,0.704 -0.96,1.376 -0.384,0.672 -0.384,1.152 h 9.12 v 2.24 h -12 q -0.032,-0.16 -0.032,-0.32 0,-0.192 0,-0.352 0,-1.344 0.448,-2.496 0.448,-1.152 1.152,-2.176 0.704,-1.024 1.568,-1.92 0.896,-0.928 1.76,-1.792 0.704,-0.704 1.344,-1.376 0.672,-0.672 1.152,-1.344 0.512,-0.672 0.8,-1.376 0.32,-0.736 0.32,-1.504 0,-0.864 -0.288,-1.472 -0.256,-0.608 -0.736,-0.992 -0.448,-0.416 -1.056,-0.608 -0.608,-0.192 -1.312,-0.192 -0.832,0 -1.536,0.224 -0.672,0.224 -1.216,0.544 -0.512,0.32 -0.896,0.64 -0.384,0.288 -0.576,0.48 l -1.312,-1.856 q 0.256,-0.288 0.768,-0.704 0.512,-0.416 1.216,-0.768 0.736,-0.384 1.632,-0.64 0.896,-0.256 1.92,-0.256 3.104,0 4.576,1.44 1.504,1.408 1.504,4.064 z m 12.416001,4.48 q 0,0.832 -0.512,1.44 -0.48,0.608 -1.28,0.608 -0.832,0 -1.344,-0.608 -0.512,-0.608 -0.512,-1.44 0,-0.832 0.512,-1.472 0.512,-0.64 1.344,-0.64 0.8,0 1.28,0.64 0.512,0.64 0.512,1.472 z m -8.384,0.352 q 0,-4.992 1.696,-7.648 1.728,-2.688 4.832,-2.688 3.136,0 4.832,2.688 1.696,2.656 1.696,7.648 0,4.992 -1.696,7.68 -1.696,2.656 -4.832,2.656 -3.104,0 -4.832,-2.656 -1.696,-2.688 -1.696,-7.68 z m 10.368,0 q 0,-1.632 -0.192,-3.072 -0.192,-1.472 -0.64,-2.56 -0.448,-1.088 -1.184,-1.728 -0.736,-0.64 -1.824,-0.64 -1.088,0 -1.824,0.64 -0.736,0.64 -1.184,1.728 -0.448,1.088 -0.64,2.56 -0.192,1.44 -0.192,3.072 0,1.632 0.192,3.104 0.192,1.44 0.64,2.528 0.448,1.088 1.184,1.728 0.736,0.64 1.824,0.64 1.088,0 1.824,-0.64 0.736,-0.64 1.184,-1.728 0.448,-1.088 0.64,-2.528 0.192,-1.472 0.192,-3.104 z m 7.84,13.344 q 2.976,-2.304 4.544,-5.312 1.6,-3.008 1.6,-6.56 0,-1.792 -0.384,-3.392 -0.352,-1.6 -1.12,-3.072 -0.768,-1.472 -1.952,-2.848 -1.152,-1.376 -2.752,-2.752 l 1.44,-1.92 q 3.68,2.72 5.472,6.336 1.824,3.584 1.824,7.584 0,1.984 -0.48,3.904 -0.448,1.92 -1.376,3.712 -0.896,1.76 -2.272,3.328 -1.344,1.6 -3.168,2.912 l -1.408,-1.92 z"
         id="path4" />
      <path
         style="fill:#212121"
         d="m 32.166469,101.50217 h 2.624 v 9.28 q -0.608,0.224 -1.952,0.544 -1.344,0.352 -3.168,0.352 -1.792,0 -3.264,-0.672 -1.472,-0.704 -2.528,-2.016 -1.024,-1.312 -1.6,-3.232 -0.576,-1.952 -0.576,-4.416 0,-2.495997 0.64,-4.415997 0.64,-1.92 1.728,-3.232 1.12,-1.312 2.592,-1.984 1.472,-0.704 3.168,-0.704 1.088,0 1.92,0.16 0.832,0.16 1.408,0.384 0.608,0.224 0.992,0.48 0.384,0.224 0.576,0.352 l -0.864,2.208 q -0.736,-0.576 -1.76,-0.928 -0.992,-0.384 -2.112,-0.384 -1.216,0 -2.272,0.576 -1.024,0.576 -1.76,1.632 -0.736,1.056 -1.152,2.56 -0.416,1.472 -0.416,3.295997 0,1.792 0.352,3.264 0.384,1.472 1.088,2.528 0.704,1.056 1.728,1.664 1.056,0.576 2.4,0.576 0.928,0 1.44,-0.128 0.512,-0.128 0.768,-0.256 z m 6.464,-5.951997 q 1.632,-0.64 3.168,-1.6 1.536,-0.992 2.848,-2.496 h 1.856 v 17.567997 h 3.744 v 2.24 h -10.656 v -2.24 h 4.288 V 95.134173 q -0.352,0.32 -0.864,0.672 -0.48,0.32 -1.088,0.64 -0.576,0.32 -1.216,0.608 -0.64,0.288 -1.248,0.48 z m 43.904,-2.048 q -1.024,1.408 -2.304,3.36 -1.248,1.92 -2.56,4.031997 -1.312,2.112 -2.56,4.256 -1.216,2.112 -2.144,3.872 h 9.824 v 2.24 h -12.832 v -1.728 q 0.992,-2.016 2.176,-4.128 1.216,-2.144 2.464,-4.192 1.248,-2.047997 2.496,-3.967997 1.248,-1.92 2.4,-3.552 h -9.056 v -2.24 h 12.096 z m 8.48,15.839997 q 2.528,0 3.584,-0.992 1.088,-1.024 1.088,-2.72 0,-1.088 -0.448,-1.824 -0.448,-0.736 -1.184,-1.184 -0.736,-0.448 -1.696,-0.64 -0.96,-0.192 -2.016,-0.192 h -0.672 v -2.143997 h 0.928 q 0.704,0 1.44,-0.128 0.768,-0.16 1.376,-0.512 0.64,-0.384 1.024,-1.024 0.384,-0.64 0.384,-1.632 0,-1.632 -1.024,-2.304 -0.992,-0.704 -2.336,-0.704 -1.376,0 -2.336,0.416 -0.96,0.384 -1.6,0.8 l -1.024,-2.016 q 0.672,-0.48 2.016,-0.992 1.376,-0.544 3.04,-0.544 1.568,0 2.688,0.384 1.12,0.384 1.824,1.088 0.736,0.704 1.088,1.664 0.352,0.928 0.352,2.048 0,1.568 -0.832,2.656 -0.8,1.088 -2.08,1.663997 1.536,0.448 2.656,1.76 1.12,1.28 1.12,3.424 0,1.28 -0.448,2.4 -0.416,1.088 -1.312,1.888 -0.864,0.8 -2.272,1.248 -1.376,0.448 -3.296,0.448 -0.736,0 -1.536,-0.128 -0.768,-0.096 -1.44,-0.288 -0.672,-0.16 -1.216,-0.32 -0.512,-0.192 -0.736,-0.288 l 0.512,-2.272 q 0.512,0.256 1.632,0.608 1.12,0.352 2.752,0.352 z"
         id="path5" />
    </g>
  </g>
  <g
     inkscape:label="keyboard-hide"
     inkscape:groupmode="layer"
     id="keyboard-hide"
     style="display:inline">
    <path
       style="fill:#212121;fill-opacity:1;stroke:none;stroke-width:14541.9px;stroke-linecap:butt;stroke-linejoin:miter;stroke-opacity:1"
       d="M 113.6,2 H 14.4 C 7.58,2 2.062,7.58 2.062,14.4 L 2,76.4 c 0,6.82 5.58,12.4 12.4,12.4 h 99.2 c 6.82,0 12.4,-5.58 12.4,-12.4 v -62 C 126,7.58 120.42,2 113.6,2 Z M 57.8,20.6 H 70.2 V 33 H 57.8 Z m 0,18.6 H 70.2 V 51.6 H 57.8 Z M 39.2,20.6 H 51.6 V 33 H 39.2 Z m 0,18.6 H 51.6 V 51.6 H 39.2 Z M 33,51.6 H 20.6 V 39.2 H 33 Z M 33,33 H 20.6 V 20.6 H 33 Z M 88.8,76.4 H 39.2 V 64 h 49.6 z m 0,-24.8 H 76.4 V 39.2 H 88.8 Z M 88.8,33 H 76.4 V 20.6 h 12.4 z m 18.6,18.6 H 95 V 39.2 h 12.4 z m 0,-18.6 H 95 V 20.6 h 12.4 z M 64,126 88.8,101.2 H 39.2 Z"
       id="path24" />
  </g>
</svg>
