<?xml version="1.0" encoding="UTF-8" standalone="no"?>
<svg
   xmlns:dc="http://purl.org/dc/elements/1.1/"
   xmlns:cc="http://creativecommons.org/ns#"
   xmlns:rdf="http://www.w3.org/1999/02/22-rdf-syntax-ns#"
   xmlns:svg="http://www.w3.org/2000/svg"
   xmlns="http://www.w3.org/2000/svg"
   xmlns:sodipodi="http://sodipodi.sourceforge.net/DTD/sodipodi-0.dtd"
   xmlns:inkscape="http://www.inkscape.org/namespaces/inkscape"
   width="128"
   height="128"
   viewBox="0 0 128 128"
   version="1.1"
   id="svg8"
   inkscape:version="1.0.2 (e86c8708, 2021-01-15)"
   sodipodi:docname="gremlin_control_icons.inkscape.svg">
  <defs
     id="defs2">
    <inkscape:path-effect
       effect="offset"
       id="path-effect3309"
       is_visible="true"
       lpeversion="1"
       linejoin_type="miter"
       unit="px"
       offset="2.9590533"
       miter_limit="4"
       attempt_force_join="true"
       update_on_knot_move="true" />
    <inkscape:path-effect
       effect="offset"
       id="path-effect3283"
       is_visible="true"
       lpeversion="1"
       linejoin_type="miter"
       unit="px"
       offset="-4"
       miter_limit="4"
       attempt_force_join="true"
       update_on_knot_move="true" />
    <inkscape:path-effect
       effect="offset"
       id="path-effect3134"
       is_visible="true"
       lpeversion="1"
       linejoin_type="miter"
       unit="px"
       offset="8"
       miter_limit="4"
       attempt_force_join="true"
       update_on_knot_move="true" />
    <inkscape:perspective
       sodipodi:type="inkscape:persp3d"
       inkscape:vp_x="0 : 64 : 1"
       inkscape:vp_y="0 : 1000 : 0"
       inkscape:vp_z="78.637099 : 149.73557 : 1"
       inkscape:persp3d-origin="64 : 42.666667 : 1"
       id="perspective3077" />
    <inkscape:path-effect
       effect="offset"
       id="path-effect7310"
       is_visible="true"
       lpeversion="1"
       linejoin_type="miter"
       unit="px"
       offset="4"
       miter_limit="4"
       attempt_force_join="true"
       update_on_knot_move="true" />
    <inkscape:path-effect
       effect="perspective-envelope"
       up_left_point="28,104"
       up_right_point="126,104"
       down_left_point="28,126"
       down_right_point="126.00001,126"
       id="path-effect7124"
       is_visible="true"
       lpeversion="1"
       deform_type="perspective"
       horizontal_mirror="false"
       vertical_mirror="false"
       overflow_perspective="false" />
    <inkscape:path-effect
       effect="perspective-envelope"
       up_left_point="89.115849,2"
       up_right_point="105.11585,2"
       down_left_point="89.115849,109.99999"
       down_right_point="105.11585,109.99999"
       id="path-effect6285"
       is_visible="true"
       lpeversion="1"
       deform_type="perspective"
       horizontal_mirror="false"
       vertical_mirror="false"
       overflow_perspective="false" />
  </defs>
  <sodipodi:namedview
     id="namedview6176"
     pagecolor="#ffffff"
     bordercolor="#666666"
     borderopacity="1.0"
     inkscape:pageopacity="0.0"
     inkscape:pageshadow="2"
     inkscape:zoom="4.6448874"
     inkscape:cx="53.228207"
     inkscape:cy="61.265171"
     inkscape:document-units="px"
     inkscape:current-layer="y_inv"
     inkscape:document-rotation="0"
     showgrid="false"
     units="px"
     showguides="true"
     inkscape:window-width="1871"
     inkscape:window-height="1310"
     inkscape:window-x="2534"
     inkscape:window-y="46"
     inkscape:window-maximized="0"
     inkscape:snap-bbox="true"
     inkscape:snap-bbox-edge-midpoints="true"
     inkscape:snap-bbox-midpoints="true"
     inkscape:bbox-nodes="true"
     inkscape:guide-bbox="true">
    <sodipodi:guide
       position="125.85731,89.70397"
       orientation="-1,0"
       id="guide6357"
       inkscape:label=""
       inkscape:locked="false"
       inkscape:color="rgb(0,0,255)" />
    <sodipodi:guide
       position="126,126"
       orientation="0,1"
       id="guide6359"
       inkscape:label=""
       inkscape:locked="false"
       inkscape:color="rgb(0,0,255)" />
    <sodipodi:guide
       position="2,2"
       orientation="0,1"
       id="guide6361"
       inkscape:label=""
       inkscape:locked="false"
       inkscape:color="rgb(0,0,255)" />
    <sodipodi:guide
       position="28,126"
       orientation="-1,0"
       id="guide6363"
       inkscape:label=""
       inkscape:locked="false"
       inkscape:color="rgb(0,0,255)" />
    <sodipodi:guide
       position="26,28"
       orientation="0,1"
       id="guide6365"
       inkscape:label=""
       inkscape:locked="false"
       inkscape:color="rgb(0,0,255)" />
    <sodipodi:guide
       position="36,138.79049"
       orientation="-1,0"
       id="guide6369"
       inkscape:label="warning"
       inkscape:locked="false"
       inkscape:color="rgb(0,0,255)" />
    <sodipodi:guide
       position="2,126"
       orientation="-1,0"
       id="guide3149"
       inkscape:label=""
       inkscape:locked="false"
       inkscape:color="rgb(0,0,255)" />
  </sodipodi:namedview>
  <metadata
     id="metadata5">
    <rdf:RDF>
      <cc:Work
         rdf:about="">
        <dc:format>image/svg+xml</dc:format>
        <dc:type
           rdf:resource="http://purl.org/dc/dcmitype/StillImage" />
        <dc:title />
      </cc:Work>
    </rdf:RDF>
  </metadata>
  <g
     inkscape:label="zoom_in"
     inkscape:groupmode="layer"
     id="zoom_in"
     style="display:inline">
    <path
       style="fill:#212121;fill-opacity:1;stroke:none;stroke-width:7.08976px;stroke-linecap:butt;stroke-linejoin:miter;stroke-opacity:1"
       d="M 90.62207,79.987421 H 85.021155 L 83.036021,78.073185 C 89.983991,69.990852 94.166953,59.497999 94.166953,48.083476 94.166953,22.631218 73.535735,2 48.083476,2 22.631218,2 2,22.631218 2,48.083476 c 0,25.452259 20.631218,46.083477 46.083476,46.083477 11.414523,0 21.907376,-4.182962 29.989709,-11.130932 l 1.914236,1.985134 V 90.62207 L 115.43625,126 126,115.43625 Z m -42.538594,0 c -17.653516,0 -31.903945,-14.250428 -31.903945,-31.903945 0,-17.653516 14.250429,-31.903945 31.903945,-31.903945 17.653517,0 31.903945,14.250429 31.903945,31.903945 0,17.653517 -14.250428,31.903945 -31.903945,31.903945 z"
       id="path6196" />
    <path
       style="display:inline;fill:#212121;fill-opacity:1;stroke:none;stroke-width:7.08976px;stroke-linecap:butt;stroke-linejoin:miter;stroke-opacity:1"
       d="M 65.80789,51.628359 H 51.628359 V 65.80789 H 44.538593 V 51.628359 H 30.359062 V 44.538593 H 44.538593 V 30.359062 h 7.089766 V 44.538593 H 65.80789 Z"
       id="path6203" />
  </g>
  <g
     inkscape:groupmode="layer"
     id="zoom_out"
     inkscape:label="zoom_out"
     style="display:inline">
    <path
       style="fill:#212121;fill-opacity:1;stroke:none;stroke-width:7.08976px;stroke-linecap:butt;stroke-linejoin:miter;stroke-opacity:1"
       d="M 90.62207,79.987421 H 85.021155 L 83.036021,78.073185 C 89.983991,69.990852 94.166953,59.497999 94.166953,48.083476 94.166953,22.631218 73.535735,2 48.083476,2 22.631218,2 2,22.631218 2,48.083476 c 0,25.452259 20.631218,46.083477 46.083476,46.083477 11.414523,0 21.907376,-4.182962 29.989709,-11.130932 l 1.914236,1.985134 V 90.62207 L 115.43625,126 126,115.43625 Z m -42.538594,0 c -17.653516,0 -31.903945,-14.250428 -31.903945,-31.903945 0,-17.653516 14.250429,-31.903945 31.903945,-31.903945 17.653517,0 31.903945,14.250429 31.903945,31.903945 0,17.653517 -14.250428,31.903945 -31.903945,31.903945 z M 30.359062,44.538593 H 65.80789 v 7.089766 H 30.359062 Z"
       id="path6205" />
  </g>
  <g
     inkscape:groupmode="layer"
     id="clear"
     inkscape:label="clear"
     style="display:inline">
    <path
       style="fill:#212121;fill-opacity:1;stroke:none;stroke-width:5.63636px;stroke-linecap:butt;stroke-linejoin:miter;stroke-opacity:1"
       d="M 86.545454,58.363638 H 80.909091 V 13.272727 C 80.909091,7.0727275 75.836363,2 69.636363,2 H 58.363635 c -6.2,0 -11.272727,5.0727275 -11.272727,11.272727 v 45.090911 h -5.636364 c -15.556364,0 -28.181819,12.625455 -28.181819,28.18182 V 126 H 114.72727 V 86.545458 c 0,-15.556365 -12.62545,-28.18182 -28.181816,-28.18182 z M 103.45455,114.72727 H 92.181818 V 97.818185 c 0,-3.100001 -2.536363,-5.636364 -5.636364,-5.636364 -3.099999,0 -5.636363,2.536363 -5.636363,5.636364 V 114.72727 H 69.636363 V 97.818185 c 0,-3.100001 -2.536364,-5.636364 -5.636363,-5.636364 -3.100001,0 -5.636365,2.536363 -5.636365,5.636364 V 114.72727 H 47.090908 V 97.818185 c 0,-3.100001 -2.536364,-5.636364 -5.636364,-5.636364 -3.1,0 -5.636363,2.536363 -5.636363,5.636364 V 114.72727 H 24.545452 V 86.545458 c 0,-9.300001 7.609092,-16.909092 16.909092,-16.909092 h 45.09091 c 9.300001,0 16.909096,7.609091 16.909096,16.909092 z"
       id="path6209" />
  </g>
  <g
     inkscape:groupmode="layer"
     id="dimensions"
     inkscape:label="dimensions"
     style="display:inline">
    <path
       style="fill:#212121;fill-opacity:1;stroke:none;stroke-width:7.75px;stroke-linecap:butt;stroke-linejoin:miter;stroke-opacity:1"
       d="m 107.865,107.865 -8.215002,8.215 -5.5025,-5.5025 8.215002,-8.215 -15.035002,-15.035002 -8.215,8.215 -5.5025,-5.5025 8.215,-8.215 -15.034999,-15.034999 -8.215,8.214999 -5.5025,-5.502499 8.215,-8.215 -15.1125,-15.1125 -8.215,8.215 -5.502499,-5.5025 8.214999,-8.215 L 25.6375,25.6375 17.4225,33.852499 11.919999,28.35 20.135,20.135 2,2 V 110.5 C 2,119.025 8.9749999,126 17.499999,126 H 126 Z M 25.249999,102.74999 V 58.109999 l 44.64,44.639991 z"
       id="path6212" />
  </g>
  <g
     inkscape:groupmode="layer"
     id="toolpath"
     inkscape:label="toolpath"
     style="display:inline">
    <path
       style="fill:#212121;fill-opacity:1;stroke:none;stroke-width:6.8282px;stroke-linecap:butt;stroke-linejoin:miter;stroke-opacity:1"
       d="m 13.949341,29.176211 c 4.779735,-4.848017 9.55947,-9.218063 11.67621,-8.330397 3.414098,1.365638 0,7.03304 -2.048456,10.378855 -1.707049,2.867841 -19.5286367,26.561676 -19.5286367,43.085906 0,8.74009 3.2775332,15.977976 9.1497817,20.348019 5.121145,3.823789 11.881057,4.984581 18.026432,3.140969 7.306167,-2.116739 13.314979,-9.559471 20.894274,-18.914097 8.262116,-10.174009 19.32379,-23.48899 27.859033,-23.48899 11.129957,0 11.266521,6.896478 12.017622,12.22247 -25.810574,4.370043 -36.735686,25.059472 -36.735686,36.667404 0,11.60792 9.832601,21.09912 21.918504,21.09912 11.129957,0 29.292941,-9.0815 32.024221,-41.651987 H 126 V 66.662997 h -16.86564 c -1.02421,-11.266521 -7.44273,-28.678415 -27.517614,-28.678415 -15.363437,0 -28.541852,13.041851 -33.73128,19.392071 -3.960352,4.984582 -14.066079,16.933922 -15.636565,18.57269 -1.707048,2.048457 -4.643172,5.735682 -7.579297,5.735682 -3.072687,0 -4.916298,-5.667402 -2.458149,-13.110132 2.389868,-7.442732 9.559472,-19.528636 12.63216,-24.035244 5.325991,-7.784143 8.876651,-13.110134 8.876651,-22.396478 0,-14.8171819 -11.198237,-19.528636 -17.138767,-19.528636 -9.013217,0 -16.86564,6.8281943 -18.572688,8.535243 C 5.5506612,13.607928 3.5022028,15.656386 2,17.499999 Z m 63.433924,79.616739 c -2.116741,0 -5.052863,-1.77532 -5.052863,-4.9163 0,-4.096915 4.984582,-15.02202 19.596917,-18.84581 -2.048458,18.36784 -9.764318,23.76211 -14.544054,23.76211 z"
       id="path6215" />
  </g>
  <g
     inkscape:groupmode="layer"
     id="simple_plane"
     inkscape:label="simple_plane"
     style="display:inline">
    <path
       id="rect6373-0"
       style="fill:#212121;fill-opacity:1;stroke:none;stroke-width:3.63;stroke-linecap:round;stroke-linejoin:round;stroke-miterlimit:4;stroke-dasharray:none;stroke-opacity:0.097166"
       d="M 4.5,2 C 3.115,2 2,3.115 2,4.5 v 3 C 2,8.885 3.115,10 4.5,10 H 11 V 84 H 4.5 C 3.115,84 2,85.115 2,86.5 v 3 C 2,90.885 3.115,92 4.5,92 h 21 c 1.385,0 2.5,-1.115 2.5,-2.5 v -3 C 28,85.115 26.885,84 25.5,84 H 19 V 10 h 6.5 C 26.885,10 28,8.885 28,7.5 v -3 C 28,3.115 26.885,2 25.5,2 h -9 -3 z"
       sodipodi:nodetypes="ssssccssssssssccssssccs" />
    <path
       id="rect6373-0-9"
       style="display:inline;fill:#212121;fill-opacity:1;stroke:none;stroke-width:3.63;stroke-linecap:round;stroke-linejoin:round;stroke-miterlimit:4;stroke-dasharray:none;stroke-opacity:0.097166"
       d="m 126,102.5 c 0,-1.385 -1.115,-2.5 -2.5,-2.5 h -3 c -1.385,0 -2.5,1.115 -2.5,2.5 V 109 H 44 v -6.5 c 0,-1.385 -1.115,-2.5 -2.5,-2.5 h -3 c -1.385,0 -2.5,1.115 -2.5,2.5 v 21 c 0,1.385 1.115,2.5 2.5,2.5 h 3 c 1.385,0 3.574918,-1.62663 2.5,-2.5 V 117 h 74 v 6.5 c 0,1.385 1.115,2.5 2.5,2.5 h 3 c 1.385,0 2.5,-1.115 2.5,-2.5 v -9 -3 z"
       sodipodi:nodetypes="ssssccssssssssccssssccs" />
  </g>
  <g
     inkscape:groupmode="layer"
     id="simple_plane_inv"
     inkscape:label="simple_plane_inv"
     style="display:inline">
    <path
       id="path878"
       style="fill:#212121;fill-opacity:1;stroke:none;stroke-width:3.63;stroke-linecap:round;stroke-linejoin:round;stroke-miterlimit:4;stroke-dasharray:none;stroke-opacity:0.097166"
       d="M 4.5,36 C 3.115,36 2,37.115 2,38.5 v 3 C 2,42.885 3.115,44 4.5,44 H 11 v 74 H 4.5 C 3.115,118 2,119.115 2,120.5 v 3 c 0,1.385 1.115,2.5 2.5,2.5 h 21 c 1.385,0 2.5,-1.115 2.5,-2.5 v -3 C 28,119.115 26.885,118 25.5,118 H 19 V 44 h 6.5 c 1.385,0 2.5,-1.115 2.5,-2.5 v -3 C 28,37.115 26.885,36 25.5,36 h -9 -3 z"
       sodipodi:nodetypes="ssssccssssssssccssssccs" />
    <path
       id="path880"
       style="display:inline;fill:#212121;fill-opacity:1;stroke:none;stroke-width:3.63;stroke-linecap:round;stroke-linejoin:round;stroke-miterlimit:4;stroke-dasharray:none;stroke-opacity:0.097166"
       d="M 126,4.5 C 126,3.115 124.885,2 123.5,2 h -3 C 119.115,2 118,3.115 118,4.5 V 11 H 44 V 4.5 C 44,3.115 42.885,2 41.5,2 h -3 C 37.115,2 36,3.115 36,4.5 v 21 c 0,1.385 1.115,2.5 2.5,2.5 h 3 c 1.385,0 3.574918,-1.62663 2.5,-2.5 V 19 h 74 v 6.5 c 0,1.385 1.115,2.5 2.5,2.5 h 3 c 1.385,0 2.5,-1.115 2.5,-2.5 v -9 -3 z"
       sodipodi:nodetypes="ssssccssssssssccssssccs" />
  </g>
  <g
     inkscape:groupmode="layer"
     id="x"
     inkscape:label="x"
     style="display:inline">
    <text
       xml:space="preserve"
       style="font-style:normal;font-weight:normal;font-size:70.9096px;line-height:1.25;font-family:sans-serif;fill:#212121;fill-opacity:1;stroke:none;stroke-width:1.77275"
       x="45.766598"
       y="92"
       id="text6353"><tspan
         sodipodi:role="line"
         id="tspan6351"
         x="45.766598"
         y="92"
         style="font-style:normal;font-variant:normal;font-weight:500;font-stretch:condensed;font-size:126.593px;font-family:Roboto;-inkscape-font-specification:'Roboto Medium Condensed';stroke-width:1.77275">X</tspan></text>
  </g>
  <g
     inkscape:groupmode="layer"
     id="y"
     inkscape:label="y"
     style="display:inline">
    <text
       xml:space="preserve"
       style="font-style:normal;font-weight:normal;font-size:70.9096px;line-height:1.25;font-family:sans-serif;fill:#212121;fill-opacity:1;stroke:none;stroke-width:1.77275"
       x="47.2192"
       y="92"
       id="text6353-3"><tspan
         sodipodi:role="line"
         id="tspan6351-8"
         x="47.2192"
         y="92"
         style="font-style:normal;font-variant:normal;font-weight:500;font-stretch:condensed;font-size:126.593px;font-family:Roboto;-inkscape-font-specification:'Roboto Medium Condensed';stroke-width:1.77275">Y</tspan></text>
  </g>
  <g
     inkscape:groupmode="layer"
     id="y_inv"
     inkscape:label="y_inv"
     style="display:inline">
    <text
       xml:space="preserve"
       style="font-style:normal;font-weight:normal;font-size:70.9096px;line-height:1.25;font-family:sans-serif;fill:#212121;fill-opacity:1;stroke:none;stroke-width:1.77275"
       x="47.2192"
       y="126"
       id="text886"><tspan
         sodipodi:role="line"
         id="tspan884"
         x="47.2192"
         y="126"
         style="font-style:normal;font-variant:normal;font-weight:500;font-stretch:condensed;font-size:126.593px;font-family:Roboto;-inkscape-font-specification:'Roboto Medium Condensed';stroke-width:1.77275">Y</tspan></text>
  </g>
  <g
     inkscape:groupmode="layer"
     id="z"
     inkscape:label="z"
     style="display:inline">
    <text
       xml:space="preserve"
       style="font-style:normal;font-weight:normal;font-size:70.9096px;line-height:1.25;font-family:sans-serif;fill:#212121;fill-opacity:1;stroke:none;stroke-width:1.77275"
       x="47.342827"
       y="92"
       id="text6353-1"><tspan
         sodipodi:role="line"
         id="tspan6351-5"
         x="47.342827"
         y="92"
         style="font-style:normal;font-variant:normal;font-weight:500;font-stretch:condensed;font-size:126.593px;font-family:Roboto;-inkscape-font-specification:'Roboto Medium Condensed';stroke-width:1.77275">Z</tspan></text>
  </g>
  <g
     inkscape:groupmode="layer"
     id="perspective_plane"
     inkscape:label="perspective_plane"
     style="display:inline">
    <path
       style="fill:#212121;fill-opacity:1;stroke:none;stroke-width:31.5575px;stroke-linecap:butt;stroke-linejoin:miter;stroke-opacity:1"
       d="m 80.929688,2 c -1.60443,0 -3.218978,0.4014754 -4.652344,1.2167969 l -35.541016,19.9160151 -0.0078,0.0039 c -2.871955,1.633612 -4.726564,4.627727 -4.726563,7.976562 v 39.775391 c 0,3.340211 1.860154,6.348058 4.726563,7.978516 l 0.0078,0.0039 35.541016,19.914062 c 2.856328,1.624727 6.446406,1.624727 9.302734,0 l 35.542972,-19.914062 0.008,-0.0039 c 2.8664,-1.630459 4.72656,-4.638299 4.72656,-7.978516 V 31.113281 c -4e-5,-3.348788 -1.8546,-6.342944 -4.72656,-7.976562 l -0.008,-0.0039 L 85.580078,3.2167969 C 84.148181,2.4023081 82.534113,2 80.929688,2 Z m 0,12.550781 L 107.27734,29.296875 80.929688,44.103516 54.582031,29.296875 Z M 48.292969,39.679688 74.783203,54.568359 V 83.996094 L 48.292969,69.169922 Z m 65.273441,0 V 69.169922 L 87.076172,83.996094 V 54.568359 Z"
       id="path3281"
       sodipodi:nodetypes="ccccssccccsscccccccccccccccc" />
    <path
       id="rect6373-0-99"
       style="display:inline;fill:#212121;fill-opacity:1;stroke:none;stroke-width:3.63;stroke-linecap:round;stroke-linejoin:round;stroke-miterlimit:4;stroke-dasharray:none;stroke-opacity:0.097166"
       d="M 4.5,2 C 3.115,2 2,3.115 2,4.5 v 3 C 2,8.885 3.115,10 4.5,10 H 11 V 84 H 4.5 C 3.115,84 2,85.115 2,86.5 v 3 C 2,90.885 3.115,92 4.5,92 h 21 c 1.385,0 2.5,-1.115 2.5,-2.5 v -3 C 28,85.115 26.885,84 25.5,84 H 19 V 10 h 6.5 C 26.885,10 28,8.885 28,7.5 v -3 C 28,3.115 26.885,2 25.5,2 h -9 -3 z"
       sodipodi:nodetypes="ssssccssssssssccssssccs" />
    <path
       id="rect6373-0-9-4"
       style="display:inline;fill:#212121;fill-opacity:1;stroke:none;stroke-width:3.63;stroke-linecap:round;stroke-linejoin:round;stroke-miterlimit:4;stroke-dasharray:none;stroke-opacity:0.097166"
       d="m 126,102.5 c 0,-1.385 -1.115,-2.5 -2.5,-2.5 h -3 c -1.385,0 -2.5,1.115 -2.5,2.5 V 109 H 44 v -6.5 c 0,-1.385 -1.115,-2.5 -2.5,-2.5 h -3 c -1.385,0 -2.5,1.115 -2.5,2.5 v 21 c 0,1.385 1.115,2.5 2.5,2.5 h 3 c 1.385,0 3.574918,-1.62663 2.5,-2.5 V 117 h 74 v 6.5 c 0,1.385 1.115,2.5 2.5,2.5 h 3 c 1.385,0 2.5,-1.115 2.5,-2.5 v -9 -3 z"
       sodipodi:nodetypes="ssssccssssssssccssssccs" />
  </g>
</svg>
